{
	"asset":{
		"version":"2.0",
		"generator":"Created using the official Cinema 4D glTF Exporter 1.000x284978"
	},
	"scenes":[{
		"nodes":[0]
	}],
	"buffers":[{
		"uri":"data:application/octet-stream;base64,",
		"byteLength":5136
	}],
	"nodes":[{
		"name":"Cube.1",
		"mesh":0,
		"translation":[-34.94993209838867,
		-18.72317886352539,
		0.0],
		"rotation":[0.0,
		0.0,
		0.0,
		-1.0],
		"scale":[1.0,
		1.0,
		1.0]
	}],
	"meshes":[{
		"name":"Cube.1",
		"primitives":[{
			"attributes":{
				"POSITION":1,
				"NORMAL":2
			},
			"indices":0
		}]
	}],
	"accessors":[{
		"bufferView":0,
		"type":"SCALAR",
		"componentType":5123,
		"count":264,
		"byteOffset":0,
		"min":[0],
		"max":[191]
	},
	{
		"bufferView":1,
		"type":"VEC3",
		"componentType":5126,
		"count":192,
		"byteOffset":0,
		"min":[-162.5,
		-82.48040008544922,
		-98.8499984741211],
		"max":[230.69769287109376,
		114.93390655517578,
		98.8499984741211]
	},
	{
		"bufferView":1,
		"type":"VEC3",
		"componentType":5126,
		"count":192,
		"byteOffset":12,
		"min":[-1.0,
		-1.0,
		-1.0],
		"max":[1.0,
		1.0,
		1.0]
	}],
	"bufferViews":[{
		"buffer":0,
		"byteOffset":0,
		"byteLength":528,
		"target":34963
	},
	{
		"buffer":0,
		"byteOffset":528,
		"byteLength":4608,
		"target":34962,
		"byteStride":24
	}]
}