# WaveFront *.obj file (generated by Cinema 4D)

mtllib ./3,1m.mtl

v -179.591920 -89.345563 92.850000
v -191.449933 96.210729 92.850000
v 42.912718 -101.203576 92.850000
v 191.449933 51.275101 92.850000
v 42.912718 -101.203576 -92.850000
v 191.449933 51.275101 -92.850000
v -179.591920 -89.345563 -92.850000
v -191.449933 96.210729 -92.850000
v 85.516266 94.758628 92.850000
v 85.516266 94.758628 -92.850000
v -18.390503 -101.203576 -92.850000
v -18.390503 -101.203576 92.850000
v -161.080821 -101.203576 -92.850000
v -161.080821 -101.203576 92.850000
v -191.449933 -80.364699 92.850000
v -191.449933 -80.364699 -92.850000
v -191.449933 78.621143 -92.850000
v -191.449933 78.621143 92.850000
v 179.605033 39.115894 -92.850000
v 179.605033 39.115894 92.850000
v -191.449933 78.624756 92.850000
v 84.143150 78.624771 92.849998
v 84.143150 78.621140 -92.849998
v -157.000233 -92.764118 82.850000
v 167.482411 40.429044 82.850000
v 167.482411 40.429044 -82.850000
v -157.000233 -92.764118 -82.850000
v 37.760329 -92.192896 82.850000
v 37.760329 -92.192896 -82.850000
v -197.449933 96.210728 98.850000
v 195.747758 47.088371 98.850000
v 195.747758 47.088371 -98.850000
v -197.449933 96.210728 -98.850000
v 85.516266 94.758627 98.850000
v 85.516266 94.758627 -98.850000
v -197.449933 78.621143 -98.850000
v -197.449933 78.621143 98.850000
v 183.902857 34.929165 -98.850000
v 183.902857 34.929165 98.850000
v -191.449933 78.624756 98.850000
v 84.143150 78.624771 98.849998
v 84.143150 78.621139 -98.849998
v -180.945803 -74.975571 84.678726
v -180.960751 -74.893575 -84.698683
v -189.505304 64.489059 -91.338797
v -189.386335 62.580170 91.244705
# 46 vertices

vn 0.000000 0.000000 1.000000
vn 0.000000 0.000000 -1.000000
vn -1.000000 0.000000 0.000000
vn 1.000000 0.000000 0.000000
vn -0.603752 -0.797172 0.000000
vn -0.539406 -0.842046 0.000000
vn -0.021851 0.049386 0.998541
vn -0.000077 0.050559 0.998721
vn -0.000092 0.050609 -0.998719
vn -0.021475 0.049484 -0.998544
vn 0.716304 -0.697788 0.000000
vn -0.714879 0.699248 0.000000
vn 0.005187 0.999983 -0.002566
vn -0.002933 0.999996 0.000000
vn 0.000000 -1.000000 0.000000
vn 0.716304 -0.697788 0.000000
vn 0.052465 0.256781 0.965044
vn -0.412282 0.911057 0.000000
vn 0.052465 0.256781 -0.965044
vn 0.998124 0.061217 -0.000005
vn 0.000000 -1.000000 0.000000
vn 0.707320 -0.706894 0.000426
vn 0.005187 0.999983 0.002621
vn -0.385941 -0.907034 0.168344
vn 0.382437 0.906715 -0.177793
vn 0.000000 1.000000 0.000000
vn 0.697789 0.716304 0.000000
vn -0.697787 -0.716305 0.000000
vn -0.385969 -0.905444 -0.176630
vn 0.382426 0.908167 0.170242
vn 0.597105 0.802163 0.000168
vn 0.998124 0.061218 -0.000035
vn 0.000000 0.000000 1.000000
# 33 normals

o Cube.1
usemtl default
f 30//1 37//1 40//2 41//2 34//1
f 15//3 21//3 18//4 17//4 16//3
f 20//1 22//1 3//1
f 13//6 14//6 1//6 15//5 16//5 7//5
f 29//7 10//8 8//8 45//8 44//7 27//7
f 24//10 43//10 46//10 2//9 9//9 28//9
f 11//2 13//2 7//0 16//2 17//2 23//2 5//2
f 19//2 5//2 23//2
f 32//2 38//2 42//2 35//2
f 5//11 19//11 20//11 3//11
f 25//12 26//12 29//12 28//12
f 33//13 8//13 10//13 35//13
f 28//14 29//14 27//14 24//14
f 11//15 5//15 3//15 12//15
f 13//15 11//15 12//15 14//15
f 37//3 30//3 33//3 36//3
f 38//16 32//16 31//16 39//16
f 31//1 34//1 41//1 39//1
f 6//17 10//17 29//17 26//17
f 25//18 4//18 6//18 26//18
f 28//19 9//19 4//19 25//19
f 8//20 2//20 46//20 45//20
f 33//2 35//2 42//2 36//2
f 40//21 21//21 22//21 41//21
f 37//22 18//22 21//22 40//22
f 34//23 9//23 2//23 30//23
f 38//24 19//24 23//24 42//24
f 35//25 10//25 6//25 32//25
f 30//26 2//26 8//26 33//26
f 36//15 17//15 18//15 37//15
f 32//27 6//27 4//27 31//27
f 39//28 20//28 19//28 38//28
f 41//29 22//29 20//29 39//29
f 31//30 4//30 9//30 34//30
f 42//15 23//15 17//15 36//15
f 27//31 44//31 43//31 24//31
f 45//32 46//32 43//32 44//32
f 14//1 12//1 3//33 22//33 21//33 15//1 1//0

