# WaveFront *.obj file (generated by Cinema 4D)

mtllib ./3,3m.mtl

v -134.559612 -73.615504 90.000000
v -165.000000 95.000000 90.000000
v 115.343077 -45.343077 90.000000
v 165.000000 95.000000 90.000000
v 115.343077 -45.343077 -90.000000
v 165.000000 95.000000 -90.000000
v -134.559612 -73.615504 -90.000000
v -165.000000 95.000000 -90.000000
v -165.000000 12.289670 -90.000000
v 169.800000 12.289670 -94.800000
v 169.800000 12.289670 94.800000
v -165.000000 12.289670 90.000000
v -165.000000 0.010756 -90.000000
v -165.000000 0.010756 90.000000
v 165.000000 0.010756 90.000000
v 165.000000 0.010756 -90.000000
v -165.000000 81.510012 -90.000000
v 169.800000 81.510012 -94.800000
v 169.800000 81.510012 94.800000
v -165.000000 81.510012 90.000000
v -64.596430 95.000000 -90.000000
v -64.596430 81.510012 -90.000000
v -64.596430 12.289670 -90.000000
v -64.596430 0.010756 -90.000000
v -64.596430 -95.000000 -90.000000
v -64.596430 -95.000000 90.000000
v -64.596430 0.010756 90.000000
v -64.596430 12.289670 90.000000
v -64.596430 81.510012 90.000000
v -64.596430 95.000000 90.000000
v -52.149040 95.000000 -90.000000
v -52.149040 81.510012 -90.000000
v -52.149040 12.289670 -90.000000
v -52.149040 0.010756 -90.000000
v -52.149040 -95.000000 -90.000000
v -52.149040 -95.000000 90.000000
v -52.149040 0.010756 90.000000
v -52.149040 12.289670 90.000000
v -52.149040 81.510012 90.000000
v -52.149040 95.000000 90.000000
v 48.208038 95.000000 -90.000000
v 48.208038 81.510012 -90.000000
v 48.208038 12.289670 -90.000000
v 48.208038 0.010756 -90.000000
v 48.208038 -95.000000 -90.000000
v 48.208038 -95.000000 90.000000
v 48.208038 0.010756 90.000000
v 48.208038 12.289670 90.000000
v 48.208038 81.510012 90.000000
v 48.208038 95.000000 90.000000
v 60.655428 95.000000 -90.000000
v 60.655428 81.510012 -90.000000
v 60.655428 12.289670 -90.000000
v 60.655428 0.010756 -90.000000
v 60.655428 -95.000000 -90.000000
v 60.655428 -95.000000 90.000000
v 60.655428 0.010756 90.000000
v 60.655428 12.289670 90.000000
v 60.655428 81.510012 90.000000
v 60.655428 95.000000 90.000000
v 141.167762 -21.756267 90.000000
v 60.655428 -45.588505 90.000000
v 48.208038 -45.588505 90.000000
v -52.149040 -45.588505 90.000000
v -64.596430 -45.588505 90.000000
v -165.000000 -34.755172 89.833886
v -165.000000 -34.755172 -90.166114
v -64.596430 -45.588505 -90.000000
v -52.149040 -45.588505 -90.000000
v 48.208038 -45.588505 -90.000000
v 60.655428 -45.588505 -90.000000
v 141.167762 -21.756267 -90.000000
v -117.497835 95.000000 -90.000000
v -117.497835 81.510012 -90.000000
v -117.497835 12.289670 -90.000000
v -117.497835 0.010756 -90.000000
v -117.497835 95.000000 90.000000
v -117.497835 -95.000000 -90.000000
v -117.497835 -95.000000 90.000000
v -117.497835 81.510012 90.000000
v -117.497835 0.010756 90.000000
v -117.497835 12.289670 90.000000
v -153.100000 95.000000 78.100000
v 153.100000 95.000000 78.100000
v 153.100000 95.000000 -78.100000
v -153.100000 95.000000 -78.100000
v -64.596430 95.000000 -78.100000
v -64.596430 95.000000 78.100000
v -52.149040 95.000000 -78.100000
v -52.149040 95.000000 78.100000
v 48.208038 95.000000 -78.100000
v 48.208038 95.000000 78.100000
v 60.655428 95.000000 -78.100000
v 60.655428 95.000000 78.100000
v -117.497835 95.000000 -78.100000
v -117.497835 95.000000 78.100000
v 149.961275 0.010756 90.000000
v 155.407008 12.289670 90.000000
v 155.407008 81.510012 90.000000
v 149.961275 95.000000 90.000000
v 139.776370 95.000000 78.100000
v 142.164876 95.000000 -78.100000
v 152.657244 95.000000 -90.000000
v 158.102977 81.510012 -90.000000
v 158.102977 12.289670 -90.000000
v 152.657244 0.010756 -90.000000
v 165.000000 0.010756 79.262540
v 165.000000 12.289670 79.262540
v 165.000000 81.510012 79.262540
v 165.000000 95.000000 79.262540
v 153.100000 95.000000 68.782270
v 153.100000 95.000000 -68.687392
v 165.000000 95.000000 -79.153204
v 165.000000 81.510012 -79.153204
v 165.000000 12.289670 -79.153204
v 165.000000 0.010756 -79.153204
v -169.800000 95.000000 94.800000
v 169.800000 95.000000 94.800000
v 169.800000 95.000000 -94.800000
v -169.800000 95.000000 -94.800000
v -169.800000 12.289670 -94.800000
v -169.800000 12.289670 94.800000
v -169.800000 0.010756 -94.800000
v -169.800000 0.010756 94.800000
v 169.800000 0.010756 94.800000
v 169.800000 0.010756 -94.800000
v -169.800000 81.510012 -94.800000
v -169.800000 81.510012 94.800000
v -64.596430 95.000000 -94.800000
v -64.596430 81.510012 -94.800000
v -64.596430 12.289670 -94.800000
v -64.596430 0.010756 -94.800000
v -64.596430 -94.997677 -94.800000
v -64.596430 -94.997677 94.800000
v -64.596430 0.010756 94.800000
v -64.596430 12.289670 94.800000
v -64.596430 81.510012 94.800000
v -64.596430 95.000000 94.800000
v -52.149040 95.000000 -94.800000
v -52.149040 81.510012 -94.800000
v -52.149040 12.289670 -94.800000
v -52.149040 0.010756 -94.800000
v -52.149040 -94.997677 -94.800000
v -52.149040 -94.997677 94.800000
v -52.149040 0.010756 94.800000
v -52.149040 12.289670 94.800000
v -52.149040 81.510012 94.800000
v -52.149040 95.000000 94.800000
v 48.208038 95.000000 -94.800000
v 48.208038 81.510012 -94.800000
v 48.208038 12.289670 -94.800000
v 48.208038 0.010756 -94.800000
v 48.208038 -94.997677 -94.800000
v 48.208038 -94.997677 94.800000
v 48.208038 0.010756 94.800000
v 48.208038 12.289670 94.800000
v 48.208038 81.510012 94.800000
v 48.208038 95.000000 94.800000
v 60.655428 95.000000 -94.800000
v 60.655428 81.510012 -94.800000
v 60.655428 12.289670 -94.800000
v 60.655428 0.010756 -94.800000
v 60.655428 -94.997677 -94.800000
v 60.655428 -94.997677 94.800000
v 60.655428 0.010756 94.800000
v 60.655428 12.289670 94.800000
v 60.655428 81.510012 94.800000
v 60.655428 95.000000 94.800000
v 60.655428 -45.588505 94.800000
v 48.208038 -45.588505 94.800000
v -52.149040 -45.588505 94.800000
v -64.596430 -45.588505 94.800000
v -64.596430 -45.588505 -94.800000
v -52.149040 -45.588505 -94.800000
v 48.208038 -45.588505 -94.800000
v 60.655428 -45.588505 -94.800000
v -117.497835 95.000000 -94.800000
v -117.497835 81.510012 -94.800000
v -117.497835 12.289670 -94.800000
v -117.497835 0.010756 -94.800000
v -117.497835 95.000000 94.800000
v -117.497835 81.510012 94.800000
v -117.497835 0.010756 94.800000
v -117.497835 12.289670 94.800000
v 149.961275 0.010756 94.800000
v 155.407008 12.289670 94.800000
v 155.407008 81.510012 94.800000
v 149.961275 95.000000 94.800000
v 152.657244 95.000000 -94.800000
v 158.102977 81.510012 -94.800000
v 158.102977 12.289670 -94.800000
v 152.657244 0.010756 -94.800000
v 169.800000 0.010756 79.262540
v 169.800000 12.289670 79.262540
v 169.800000 81.510012 79.262540
v 169.800000 95.000000 79.262540
v 169.800000 95.000000 -79.153204
v 169.800000 81.510012 -79.153204
v 169.800000 12.289670 -79.153204
v 169.800000 0.010756 -79.153204
v -153.100000 0.100000 78.100000
v 153.100000 0.100000 78.100000
v 153.100000 0.100000 -78.100000
v -153.100000 0.100000 -78.100000
v -64.596430 0.100000 -78.100000
v -64.596430 0.100000 78.100000
v -52.149040 0.100000 -78.100000
v -52.149040 0.100000 78.100000
v 48.208038 0.100000 -78.100000
v 48.208038 0.100000 78.100000
v 60.655428 0.100000 -78.100000
v 60.655428 0.100000 78.100000
v -117.497835 0.100000 -78.100000
v -117.497835 0.100000 78.100000
v 139.776370 0.100000 78.100000
v 142.164876 0.100000 -78.100000
v 153.100000 0.100000 68.782270
v 153.100000 0.100000 -68.687392
v -111.345839 -86.682351 78.506120
v 59.623929 -86.398343 78.506120
v 59.623929 -86.398343 -78.506120
v -111.345839 -86.682351 -78.506120
v -46.380237 -86.398343 -78.506120
v -46.380237 -86.398343 78.506120
v -37.443011 -86.398343 -78.506120
v -37.443011 -86.398343 78.506120
v 34.613371 -86.398343 -78.506120
v 34.613371 -86.398343 78.506120
v 43.550597 -86.398343 -78.506120
v 43.550597 -86.398343 78.506120
v -84.363446 -86.398343 -78.506120
v -84.363446 -86.398343 78.506120
v 48.135206 -86.398343 78.506120
v 49.850154 -86.398343 -78.506120
v 59.623929 -86.398343 69.139938
v 59.623929 -86.398343 -69.044566
v -153.174889 -34.196096 -78.160640
v -152.703375 -35.140763 78.473765
# 238 vertices

vn -0.010525 0.999945 0.000000
vn -0.005263 0.999986 0.000000
vn 0.000000 1.000000 0.000000
vn -0.000702 -0.001430 0.999999
vn -0.000702 0.000163 1.000000
vn -0.001053 0.000244 0.999999
vn -0.001053 -0.002145 0.999997
vn 0.000000 -0.004778 0.999989
vn 0.000000 0.000000 1.000000
vn 0.674390 -0.738375 0.000000
vn 0.673313 -0.739357 0.000000
vn 0.674390 -0.738375 0.000000
vn 0.674390 -0.738375 0.000000
vn 0.000000 0.000000 -1.000000
vn 0.000000 0.000000 -1.000000
vn 0.000702 -0.000163 -1.000000
vn 0.000000 0.000000 -1.000000
vn 0.000702 0.001430 -0.999999
vn 0.000000 0.004778 -0.999989
vn 0.001053 0.002145 -0.999997
vn 0.001053 -0.000244 -0.999999
vn -0.945312 -0.326167 0.000000
vn -0.784465 -0.620173 0.000000
vn -0.781685 -0.623673 0.000000
vn 0.000000 -1.000000 0.000000
vn -1.000000 0.000000 0.000000
vn 0.672234 -0.740338 0.000000
vn 1.000000 0.000000 0.000000
vn 0.999997 0.002260 -0.000736
vn 0.000000 -0.000884 1.000000
vn 0.000213 -0.002336 0.999997
vn 0.000000 -0.002348 0.999997
vn 0.000000 -0.002348 0.999997
vn 0.000000 -0.002348 -0.999997
vn 0.000000 -0.002348 -0.999997
vn 0.000000 -0.002348 -0.999997
vn 0.000000 -0.002348 -0.999997
vn -0.000427 -0.003756 -0.999993
vn 0.000000 -0.005303 -0.999986
vn 0.942910 0.333046 -0.000401
vn 0.000531 -0.004956 0.999988
vn 0.001063 -0.005217 0.999986
vn 0.000531 -0.003493 0.999994
vn 0.000000 -0.004695 0.999989
vn 0.000000 -0.004695 0.999989
vn -0.679182 0.733970 0.000000
vn 0.000000 -0.004695 -0.999989
vn 0.000000 -0.004695 -0.999989
vn 0.000000 -0.004695 -0.999989
vn 0.000000 -0.004695 -0.999989
vn 0.000000 -0.004695 -0.999989
vn -0.001068 -0.004086 -0.999991
vn -0.001068 -0.007042 -0.999975
vn -0.002135 -0.003478 -0.999992
vn 0.780991 0.624542 0.000713
# 55 normals

vt 0.036061 0.933889 0.000000
vt 0.143946 0.933889 0.000000
vt 0.143946 0.066111 0.000000
vt 0.036061 0.066111 0.000000
vt 0.304253 0.933889 0.000000
vt 0.304253 0.066111 0.000000
vt 0.341973 0.933889 0.000000
vt 0.341973 0.066111 0.000000
vt 0.646085 0.933889 0.000000
vt 0.646085 0.066111 0.000000
vt 0.683804 0.933889 0.000000
vt 0.683804 0.066111 0.000000
vt 0.963939 0.881597 0.000000
vt 0.930803 0.933889 0.000000
vt -0.000043 1.004783 0.000488
vt 0.963939 0.933889 0.000000
vt 0.000000 1.000000 0.000000
vt 0.963939 0.117876 0.000000
vt 0.923565 0.066111 0.000000
vt 0.963939 0.066111 0.000000
vt -100000.000000 100001.000000 -100000.000000
vt 0.143946 0.500057 0.000000
vt 0.304253 0.260061 0.000000
vt 0.000000 0.000000 0.000000
vt 0.000000 0.260061 0.000000
vt 0.000000 0.500057 0.000000
vt 0.304253 0.500057 0.000000
vt 0.143946 0.000000 0.000000
vt 0.304253 0.000000 0.000000
vt 1.000000 0.260061 0.000000
vt 1.000000 0.000000 0.000000
vt 0.059653 0.500057 0.000000
vt 0.939740 0.500057 0.000000
vt 1.000000 0.500057 0.000000
vt 0.316196 0.500057 0.000000
vt 0.316196 0.260061 0.000000
vt 0.037402 0.500057 0.000000
vt 0.316196 0.000000 0.000000
vt 0.695747 0.260061 0.000000
vt 0.695747 0.500057 0.000000
vt 0.856054 0.500057 0.000000
vt -0.000043 1.005547 0.000488
vt 0.856054 0.000000 0.000000
vt 0.695747 0.000000 0.000000
vt 0.341973 0.500057 0.000000
vt 0.341973 0.260061 0.000000
vt 0.341973 0.000000 0.000000
vt 0.658027 0.500057 0.000000
vt 0.658027 0.260061 0.000000
vt 0.658027 0.000000 0.000000
vt 0.646085 0.500057 0.000000
vt 0.646085 0.260061 0.000000
vt 0.646085 0.000000 0.000000
vt 0.353915 0.500057 0.000000
vt 0.353915 0.260061 0.000000
vt 0.353915 0.000000 0.000000
vt 0.683804 0.500057 0.000000
vt 0.683804 0.260061 0.000000
vt 0.683804 0.000000 0.000000
vt 0.954428 0.500057 0.000000
vt 0.008423 -64.003906 -0.000152
vt 0.695747 1.000000 0.000000
vt 0.856054 1.000000 0.000000
vt 0.856054 0.929000 0.000000
vt 0.695747 0.929000 0.000000
vt 1.000000 1.000000 0.000000
vt 1.000000 0.929000 0.000000
vt 0.856054 0.564682 0.000000
vt 0.695747 0.564682 0.000000
vt 1.000000 0.564682 0.000000
vt 0.000000 0.564682 0.000000
vt 0.000000 0.929000 0.000000
vt 0.143946 0.929000 0.000000
vt 0.143946 0.564682 0.000000
vt 0.304253 0.929000 0.000000
vt 0.304253 0.564682 0.000000
vt 0.143946 1.000000 0.000000
vt 0.304253 1.000000 0.000000
vt 0.683804 1.000000 0.000000
vt 0.037402 0.929000 0.000000
vt 0.037402 0.564682 0.000000
vt 0.059653 0.929000 0.000000
vt 0.059653 0.564682 0.000000
vt 0.037402 1.000000 0.000000
vt 0.059653 1.000000 0.000000
vt 0.341973 1.000000 0.000000
vt 0.341973 0.564682 0.000000
vt 0.341973 0.929000 0.000000
vt 0.954428 1.000000 0.000000
vt 0.954428 0.929000 0.000000
vt 0.683804 0.929000 0.000000
vt 0.658027 1.000000 0.000000
vt 0.658027 0.929000 0.000000
vt 0.658027 0.564682 0.000000
vt 0.646085 1.000000 0.000000
vt 0.646085 0.564682 0.000000
vt 0.646085 0.929000 0.000000
vt 0.954428 0.564682 0.000000
vt 0.683804 0.564682 0.000000
vt 0.353915 1.000000 0.000000
vt 0.353915 0.929000 0.000000
vt 0.353915 0.564682 0.000000
vt 0.316196 1.000000 0.000000
vt 0.316196 0.929000 0.000000
vt 0.316196 0.564682 0.000000
vt 0.962598 1.000000 0.000000
vt 1.000000 0.939740 0.000000
vt 0.954428 0.000000 0.000000
vt 0.939740 0.564682 0.000000
vt 0.939740 0.929000 0.000000
vt 0.939740 1.000000 0.000000
vt 1.000000 0.059653 0.000000
# 112 texture coordinates

o Cube
usemtl default
f 232/3/2 224/6/3 226/8/3 228/10/3 230/12/3 233/19/3 220/20/3 235/18/3 236/13/3 221/16/3 234/14/3 229/11/3 227/9/3 225/7/3 223/5/3 231/2/2 222/1/1 219/4/1
f 79/28/9 26/29/9 65/23/5 27/27/9 81/22/4 14/26/8 66/25/7 1/24/6
f 5/31/11 72/30/10 16/34/13 116/33/13 107/32/12 15/26/12 61/25/10 3/24/11
f 55/38/15 71/36/14 54/35/14 106/37/14 16/26/14 72/25/14 5/24/14
f 68/39/16 25/44/14 78/43/14 7/31/21 67/30/20 13/34/19 76/41/18 24/40/17
f 172/23/9 134/29/9 144/47/9 171/46/9 145/45/9 135/27/9
f 174/49/14 143/50/14 133/44/14 173/39/14 132/40/14 142/48/14
f 64/46/9 36/47/9 46/53/9 63/52/9 47/51/9 37/45/9
f 70/55/14 45/56/14 35/50/14 69/49/14 34/48/14 44/54/14
f 170/52/9 154/53/9 164/59/9 169/58/9 165/57/9 155/51/9
f 176/36/14 163/38/14 153/56/14 175/55/14 152/54/14 162/35/14
f 62/58/9 56/59/9 3/31/9 61/30/9 15/34/9 97/60/9 57/57/9
f 130/65/14 178/64/14 127/67/14 120/66/14 177/63/14 129/62/14
f 23/69/14 75/68/14 9/70/14 17/67/14 74/64/14 22/65/14
f 132/40/14 180/41/14 123/34/14 121/70/14 179/68/14 131/69/14
f 82/74/9 28/76/9 29/75/9 80/73/9 20/72/9 12/71/9
f 183/22/9 135/27/9 136/76/9 184/74/9 122/71/9 124/26/9
f 182/73/9 137/75/9 138/78/9 181/77/9 117/17/9 128/72/9
f 78/28/24 79/77/24 1/31/23 66/30/22 67/25/22 7/24/23
f 78/28/25 25/29/25 26/78/25 79/77/25
f 67/25/22 66/30/22 14/34/26 13/26/26
f 55/59/27 5/31/11 3/66/11 56/79/27
f 191/81/14 190/80/14 18/72/14 10/71/14
f 194/83/28 195/82/28 19/72/28 11/71/28
f 12/70/26 20/67/26 17/72/26 9/71/26
f 124/34/26 122/70/26 121/71/26 123/26/26
f 193/32/28 194/83/28 11/71/28 125/26/28
f 192/37/14 191/81/14 10/71/14 126/26/14
f 190/80/14 189/84/14 119/17/14 18/72/14
f 195/82/28 196/85/28 118/17/28 19/72/28
f 128/67/26 117/66/26 120/17/26 127/72/26
f 133/29/25 143/47/25 144/86/25 134/78/25
f 135/27/9 145/45/9 146/87/9 136/76/9
f 136/76/9 146/87/9 147/88/9 137/75/9
f 137/75/9 147/88/9 148/86/9 138/78/9
f 167/91/9 187/90/9 188/89/9 168/79/9
f 140/93/14 130/65/14 129/62/14 139/92/14
f 141/94/14 131/69/14 130/65/14 140/93/14
f 142/48/14 132/40/14 131/69/14 141/94/14
f 35/47/25 45/53/25 46/95/25 36/86/25
f 145/45/9 155/51/9 156/96/9 146/87/9
f 38/87/9 48/96/9 49/97/9 39/88/9
f 147/88/9 157/97/9 158/95/9 148/86/9
f 58/99/9 98/98/9 99/90/9 59/91/9
f 150/101/14 140/93/14 139/92/14 149/100/14
f 43/102/14 33/94/14 32/93/14 42/101/14
f 152/54/14 142/48/14 141/94/14 151/102/14
f 153/53/25 163/59/25 164/79/25 154/95/25
f 155/51/9 165/57/9 166/99/9 156/96/9
f 156/96/9 166/99/9 167/91/9 157/97/9
f 157/97/9 167/91/9 168/79/9 158/95/9
f 165/57/9 185/60/9 186/98/9 166/99/9
f 160/104/14 150/101/14 149/100/14 159/103/14
f 161/105/14 151/102/14 150/101/14 160/104/14
f 162/35/14 152/54/14 151/102/14 161/105/14
f 86/1/3 8/17/3 2/24/3 83/4/3
f 95/2/3 73/77/3 8/17/3 86/1/3
f 87/5/3 21/78/3 73/77/3 95/2/3
f 89/7/3 31/86/3 21/78/3 87/5/3
f 91/9/3 41/95/3 31/86/3 89/7/3
f 93/11/3 51/79/3 41/95/3 91/9/3
f 102/14/3 103/106/3 51/79/3 93/11/3
f 112/13/3 113/107/3 6/66/3 85/16/3
f 101/19/3 100/108/3 4/31/3 84/20/3
f 92/10/3 50/53/3 60/59/3 94/12/3
f 90/8/3 40/47/3 50/53/3 92/10/3
f 88/6/3 30/29/3 40/47/3 90/8/3
f 96/3/3 77/28/3 30/29/3 88/6/3
f 83/4/3 2/24/3 77/28/3 96/3/3
f 185/60/9 125/34/9 11/70/9 186/98/9
f 186/98/9 11/70/9 19/67/9 187/90/9
f 187/90/9 19/67/9 118/66/9 188/89/9
f 101/19/3 94/12/3 60/59/3 100/108/3
f 102/14/3 85/16/3 6/66/3 103/106/3
f 190/80/14 160/104/14 159/103/14 189/84/14
f 105/81/14 53/105/14 52/104/14 104/80/14
f 192/37/14 162/35/14 161/105/14 191/81/14
f 193/32/28 200/33/28 199/109/28 194/83/28
f 108/83/28 115/109/28 114/110/28 109/82/28
f 195/82/28 198/110/28 197/111/28 196/85/28
f 111/18/3 84/20/3 4/31/3 110/112/3
f 112/13/3 111/18/3 110/112/3 113/107/3
f 198/110/28 18/67/28 119/66/28 197/111/28
f 199/109/28 10/70/28 18/67/28 198/110/28
f 200/33/28 126/34/28 10/70/28 199/109/28
f 171/46/28 64/46/28 37/45/28 145/45/28
f 144/47/28 36/47/28 64/46/28 171/46/28
f 172/23/26 65/23/26 26/29/26 134/29/26
f 135/27/26 27/27/26 65/23/26 172/23/26
f 173/39/26 68/39/26 24/40/26 132/40/26
f 133/44/26 25/44/26 68/39/26 173/39/26
f 174/49/28 69/49/28 35/50/28 143/50/28
f 142/48/28 34/48/28 69/49/28 174/49/28
f 169/58/28 62/58/28 57/57/28 165/57/28
f 164/59/28 56/59/28 62/58/28 169/58/28
f 170/52/26 63/52/26 46/53/26 154/53/26
f 155/51/26 47/51/26 63/52/26 170/52/26
f 175/55/26 70/55/26 44/54/26 152/54/26
f 153/56/26 45/56/26 70/55/26 175/55/26
f 176/36/28 71/36/28 55/38/28 163/38/28
f 162/35/28 54/35/28 71/36/28 176/36/28
f 177/63/3 73/63/3 21/62/3 129/62/3
f 120/66/3 8/66/3 73/63/3 177/63/3
f 178/64/25 74/64/25 17/67/25 127/67/25
f 130/65/25 22/65/25 74/64/25 178/64/25
f 179/68/3 75/68/3 23/69/3 131/69/3
f 121/70/3 9/70/3 75/68/3 179/68/3
f 180/41/25 76/41/25 13/34/25 123/34/25
f 132/40/25 24/40/25 76/41/25 180/41/25
f 184/74/3 82/74/3 12/71/3 122/71/3
f 136/76/3 28/76/3 82/74/3 184/74/3
f 183/22/25 81/22/25 27/27/25 135/27/25
f 124/26/25 14/26/25 81/22/25 183/22/25
f 181/77/3 77/77/3 2/17/3 117/17/3
f 138/78/3 30/78/3 77/77/3 181/77/3
f 182/73/25 80/73/25 29/75/25 137/75/25
f 128/72/25 20/72/25 80/73/25 182/73/25
f 191/81/26 105/81/26 104/80/26 190/80/26
f 194/83/14 108/83/14 109/82/14 195/82/14
f 122/70/3 12/70/3 9/71/3 121/71/3
f 123/26/25 13/26/25 14/34/25 124/34/25
f 125/26/25 15/26/25 107/32/25 193/32/25
f 126/26/25 16/26/25 106/37/25 192/37/25
f 189/84/3 103/84/3 6/17/3 119/17/3
f 196/85/3 110/85/3 4/17/3 118/17/3
f 117/66/3 2/66/3 8/17/3 120/17/3
f 127/72/25 17/72/25 20/67/25 128/67/25
f 143/47/26 35/47/26 36/86/26 144/86/26
f 134/78/28 26/78/28 25/29/28 133/29/28
f 146/87/28 38/87/28 39/88/28 147/88/28
f 137/75/26 29/75/26 28/76/26 136/76/26
f 148/86/3 40/86/3 30/78/3 138/78/3
f 188/89/3 100/89/3 60/79/3 168/79/3
f 167/91/25 59/91/25 99/90/25 187/90/25
f 129/62/3 21/62/3 31/92/3 139/92/3
f 131/69/26 23/69/26 22/65/26 130/65/26
f 140/93/28 32/93/28 33/94/28 141/94/28
f 156/96/3 48/96/3 38/87/3 146/87/3
f 145/45/25 37/45/25 47/51/25 155/51/25
f 158/95/3 50/95/3 40/86/3 148/86/3
f 147/88/25 39/88/25 49/97/25 157/97/25
f 139/92/3 31/92/3 41/100/3 149/100/3
f 150/101/25 42/101/25 32/93/25 140/93/25
f 141/94/3 33/94/3 43/102/3 151/102/3
f 152/54/25 44/54/25 34/48/25 142/48/25
f 163/59/26 55/59/26 56/79/26 164/79/26
f 154/95/28 46/95/28 45/53/28 153/53/28
f 166/99/28 58/99/28 59/91/28 167/91/28
f 157/97/26 49/97/26 48/96/26 156/96/26
f 168/79/3 60/79/3 50/95/3 158/95/3
f 186/98/3 98/98/3 58/99/3 166/99/3
f 165/57/25 57/57/25 97/60/25 185/60/25
f 149/100/3 41/100/3 51/103/3 159/103/3
f 151/102/26 43/102/26 42/101/26 150/101/26
f 160/104/28 52/104/28 53/105/28 161/105/28
f 185/60/25 97/60/25 15/34/25 125/34/25
f 187/90/26 99/90/26 98/98/26 186/98/26
f 118/66/3 4/66/3 100/89/3 188/89/3
f 159/103/3 51/103/3 103/84/3 189/84/3
f 190/80/25 104/80/25 52/104/25 160/104/25
f 161/105/3 53/105/3 105/81/3 191/81/3
f 192/37/25 106/37/25 54/35/25 162/35/25
f 199/109/3 115/109/3 108/83/3 194/83/3
f 193/32/25 107/32/25 116/33/25 200/33/25
f 197/111/3 113/111/3 110/85/3 196/85/3
f 195/82/25 109/82/25 114/110/25 198/110/25
f 119/66/3 6/66/3 113/111/3 197/111/3
f 198/110/9 114/110/9 115/109/9 199/109/9
f 200/33/25 116/33/25 16/34/25 126/34/25
f 204/1/29 86/1/28 83/4/28 201/4/29
f 213/2/31 95/2/9 86/1/9 204/1/30
f 205/5/32 87/5/9 95/2/9 213/2/31
f 207/7/33 89/7/9 87/5/9 205/5/32
f 209/9/33 91/9/9 89/7/9 207/7/33
f 211/11/32 93/11/9 91/9/9 209/9/33
f 216/14/32 102/14/9 93/11/9 211/11/32
f 203/16/32 85/16/9 102/14/9 216/14/32
f 218/13/26 112/13/26 85/16/26 203/16/26
f 217/18/26 111/18/26 112/13/26 218/13/26
f 202/20/26 84/20/26 111/18/26 217/18/26
f 215/19/35 101/19/14 84/20/14 202/20/34
f 212/12/36 94/12/14 101/19/14 215/19/35
f 210/10/36 92/10/14 94/12/14 212/12/36
f 208/8/37 90/8/14 92/10/14 210/10/36
f 206/6/37 88/6/14 90/8/14 208/8/37
f 214/3/38 96/3/14 88/6/14 206/6/37
f 201/4/39 83/4/14 96/3/14 214/3/38
f 204/1/29 201/4/29 238/4/40 237/1/40
f 231/2/41 213/2/31 204/1/30 237/1/43 222/1/42
f 223/5/44 205/5/32 213/2/31 231/2/41
f 225/7/45 207/7/33 205/5/32 223/5/44
f 227/9/45 209/9/33 207/7/33 225/7/45
f 229/11/44 211/11/32 209/9/33 227/9/45
f 234/14/44 216/14/32 211/11/32 229/11/44
f 221/16/44 203/16/32 216/14/32 234/14/44
f 236/13/46 218/13/46 203/16/46 221/16/46
f 235/18/46 217/18/46 218/13/46 236/13/46
f 220/20/46 202/20/46 217/18/46 235/18/46
f 233/19/48 215/19/35 202/20/34 220/20/47
f 230/12/49 212/12/36 215/19/35 233/19/48
f 228/10/50 210/10/36 212/12/36 230/12/49
f 226/8/51 208/8/37 210/10/36 228/10/50
f 224/6/51 206/6/37 208/8/37 226/8/51
f 232/3/52 214/3/38 206/6/37 224/6/51
f 219/4/54 238/4/53 201/4/39 214/3/38 232/3/52
f 222/1/55 237/1/40 238/4/40 219/4/55

