{
	"asset":{
		"version":"2.0",
		"generator":"Created using the official Cinema 4D glTF Exporter 1.000x284978"
	},
	"scenes":[{
		"nodes":[0]
	}],
	"buffers":[{
		"uri":"data:application/octet-stream;base64,",
		"byteLength":22512
	}],
	"nodes":[{
		"name":"Cube",
		"mesh":0
	}],
	"meshes":[{
		"name":"Cube",
		"primitives":[{
			"attributes":{
				"POSITION":1,
				"NORMAL":2,
				"TEXCOORD_0":3
			},
			"indices":0
		}]
	}],
	"accessors":[{
		"bufferView":0,
		"type":"SCALAR",
		"componentType":5123,
		"count":1416,
		"byteOffset":0,
		"min":[0],
		"max":[614]
	},
	{
		"bufferView":1,
		"type":"VEC3",
		"componentType":5126,
		"count":615,
		"byteOffset":0,
		"min":[-169.8000030517578,
		-95.0,
		-94.80000305175781],
		"max":[169.8000030517578,
		95.0,
		94.80000305175781]
	},
	{
		"bufferView":1,
		"type":"VEC3",
		"componentType":5126,
		"count":615,
		"byteOffset":12,
		"min":[-1.0,
		-1.0,
		-1.0],
		"max":[1.0,
		1.0,
		1.0]
	},
	{
		"bufferView":1,
		"type":"VEC2",
		"componentType":5126,
		"count":615,
		"byteOffset":24,
		"min":[0.0,
		0.0],
		"max":[1.0,
		1.0]
	}],
	"bufferViews":[{
		"buffer":0,
		"byteOffset":0,
		"byteLength":2832,
		"target":34963
	},
	{
		"buffer":0,
		"byteOffset":2832,
		"byteLength":19680,
		"target":34962,
		"byteStride":32
	}]
}