{
	"asset":{
		"version":"2.0",
		"generator":"Created using the official Cinema 4D glTF Exporter 1.000x284978"
	},
	"scenes":[{
		"nodes":[0]
	}],
	"buffers":[{
		"uri":"data:application/octet-stream;base64,",
		"byteLength":48272
	},
	{
		"uri":"data:application/octet-stream;base64,",
		"byteLength":45528
	}],
	"nodes":[{
		"name":"Null",
		"translation":[-26.399511337280275,
		-31.608112335205079,
		1.0363763205912744e-14],
		"rotation":[0.0,
		0.0,
		0.0,
		-1.0],
		"scale":[1.0,
		1.0,
		1.0],
		"children":[1,
		2]
	},
	{
		"name":"Cube",
		"mesh":0,
		"translation":[26.399511337280275,
		31.608112335205079,
		-1.0363763205912744e-14],
		"rotation":[0.0,
		0.0,
		0.0,
		-1.0],
		"scale":[1.0,
		1.0,
		1.0]
	},
	{
		"name":"SINA.002",
		"mesh":1,
		"translation":[-26.399511337280275,
		-31.608112335205079,
		1.0363763205912744e-14],
		"rotation":[-0.5,
		0.5,
		0.5,
		0.5],
		"scale":[1.0,
		1.0,
		1.0]
	}],
	"meshes":[{
		"name":"Cube",
		"primitives":[{
			"attributes":{
				"POSITION":1,
				"NORMAL":2,
				"TEXCOORD_0":3
			},
			"indices":0
		}]
	},
	{
		"name":"SINA.002",
		"primitives":[{
			"attributes":{
				"POSITION":5,
				"NORMAL":6,
				"TEXCOORD_0":7
			},
			"indices":4
		}]
	}],
	"accessors":[{
		"bufferView":0,
		"type":"SCALAR",
		"componentType":5123,
		"count":2871,
		"byteOffset":0,
		"min":[0],
		"max":[1328]
	},
	{
		"bufferView":1,
		"type":"VEC3",
		"componentType":5126,
		"count":1329,
		"byteOffset":0,
		"min":[-325.0180969238281,
		-111.52799987792969,
		-138.5],
		"max":[285.9819030761719,
		95.88491821289063,
		138.5]
	},
	{
		"bufferView":1,
		"type":"VEC3",
		"componentType":5126,
		"count":1329,
		"byteOffset":12,
		"min":[-1.0,
		-1.0,
		-1.0],
		"max":[1.0,
		1.0,
		1.0]
	},
	{
		"bufferView":1,
		"type":"VEC2",
		"componentType":5126,
		"count":1329,
		"byteOffset":24,
		"min":[0.0,
		-0.19607841968536378],
		"max":[1.0,
		1.2777776718139649]
	},
	{
		"bufferView":2,
		"type":"SCALAR",
		"componentType":5123,
		"count":2508,
		"byteOffset":0,
		"min":[0],
		"max":[1265]
	},
	{
		"bufferView":3,
		"type":"VEC3",
		"componentType":5126,
		"count":1266,
		"byteOffset":0,
		"min":[-63.020225524902347,
		-322.39337158203127,
		-67.46517944335938],
		"max":[63.020225524902347,
		280.71551513671877,
		115.52029418945313]
	},
	{
		"bufferView":3,
		"type":"VEC3",
		"componentType":5126,
		"count":1266,
		"byteOffset":12,
		"min":[-1.0,
		-1.0,
		-1.0],
		"max":[1.0,
		1.0,
		1.0]
	},
	{
		"bufferView":3,
		"type":"VEC2",
		"componentType":5126,
		"count":1266,
		"byteOffset":24,
		"min":[0.0,
		0.0],
		"max":[0.38609248399734499,
		1.0]
	}],
	"bufferViews":[{
		"buffer":0,
		"byteOffset":0,
		"byteLength":5742,
		"target":34963
	},
	{
		"buffer":0,
		"byteOffset":5744,
		"byteLength":42528,
		"target":34962,
		"byteStride":32
	},
	{
		"buffer":1,
		"byteOffset":0,
		"byteLength":5016,
		"target":34963
	},
	{
		"buffer":1,
		"byteOffset":5016,
		"byteLength":40512,
		"target":34962,
		"byteStride":32
	}]
}