{
	"asset":{
		"version":"2.0",
		"generator":"Created using the official Cinema 4D glTF Exporter 1.000x284978"
	},
	"scenes":[{
		"nodes":[0,
		1]
	}],
	"accessors":[{
		"bufferView":0,
		"type":"SCALAR",
		"componentType":5123,
		"count":465,
		"byteOffset":0,
		"min":[0],
		"max":[314]
	},
	{
		"bufferView":1,
		"type":"VEC3",
		"componentType":5126,
		"count":315,
		"byteOffset":0,
		"min":[-162.9875030517578,
		-82.48040008544922,
		-99.14655303955078],
		"max":[231.38978576660157,
		118.6888656616211,
		99.14655303955078]
	},
	{
		"bufferView":1,
		"type":"VEC3",
		"componentType":5126,
		"count":315,
		"byteOffset":12,
		"min":[-1.0,
		-1.0,
		-1.0],
		"max":[1.0,
		1.0,
		1.0]
	}],
	"nodes":[{
		"name":"Cube.4",
		"mesh":0,
		"translation":[-34.94993209838867,
		-18.72317886352539,
		0.0],
		"rotation":[0.0,
		0.0,
		0.0,
		-1.0],
		"scale":[1.0,
		1.0,
		1.0]
	},
	{
		"name":"Rectangle",
		"translation":[0.0,
		0.0,
		0.0],
		"rotation":[0.0,
		-0.9702963829040527,
		0.0,
		-0.24191924929618836],
		"scale":[1.0,
		1.0,
		1.0],
		"children":[2]
	},
	{
		"name":"OctaneCamera",
		"rotation":[-0.12239348888397217,
		-0.780754566192627,
		-0.161686509847641,
		0.5910157561302185],
		"camera":0,
		"translation":[-493.2557373046875,
		242.0233612060547,
		-80.4127426147461],
		"scale":[1.0,
		1.0,
		1.0]
	}],
	"meshes":[{
		"name":"Cube.4",
		"primitives":[{
			"attributes":{
				"POSITION":1,
				"NORMAL":2
			},
			"indices":0,
			"material":0
		}]
	}],
	"cameras":[{
		"type":"perspective",
		"perspective":{
			"znear":0.009999999776482582,
			"zfar":10000000000.0,
			"aspectRatio":1.7777777910232545,
			"yfov":0.5483348965644836
		}
	}],
	"bufferViews":[{
		"buffer":0,
		"byteOffset":0,
		"byteLength":930,
		"target":34963
	},
	{
		"buffer":0,
		"byteOffset":932,
		"byteLength":7560,
		"target":34962,
		"byteStride":24
	}],
	"buffers":[{
		"uri":"data:application/octet-stream;base64,",
		"byteLength":8492
	}],
	"materials":[{
		"pbrMetallicRoughness":{
			"baseColorFactor":[0.21600000000000003,
			0.585866666666667,
			0.8,
			1.0],
			"metallicFactor":0.0,
			"roughnessFactor":0.5
		},
		"emissiveFactor":[0.0,
		0.0,
		0.0],
		"alphaMode":"OPAQUE",
		"doubleSided":false,
		"name":"Mat.1"
	}]
}