{
	"asset":{
		"version":"2.0",
		"generator":"Created using the official Cinema 4D glTF Exporter 1.000x284978"
	},
	"scenes":[{
		"nodes":[0,
		1,
		2,
		3,
		4,
		5,
		6]
	}],
	"nodes":[{
		"name":"Plane.4",
		"mesh":0,
		"translation":[0.4746769964694977,
		-55.90961837768555,
		191.2783203125],
		"rotation":[0.5,
		0.5,
		0.5,
		-0.5],
		"scale":[12.119674682617188,
		12.119674682617188,
		12.119674682617188]
	},
	{
		"name":"Text.1",
		"translation":[-43.753257751464847,
		-57.01929473876953,
		198.3832550048828],
		"rotation":[-0.5,
		0.5,
		0.5,
		0.5],
		"scale":[1.0,
		1.0,
		1.0],
		"children":[7]
	},
	{
		"name":"Text",
		"translation":[524.9081420898438,
		-57.01929473876953,
		-107.35189056396485],
		"rotation":[0.7071067690849304,
		0.0,
		0.0,
		-0.7071067690849304],
		"scale":[1.0,
		1.0,
		1.0],
		"children":[8]
	},
	{
		"name":"Plane.2",
		"mesh":1,
		"translation":[0.4746769964694977,
		-55.90961837768555,
		-192.1875762939453],
		"rotation":[-0.5,
		0.5,
		0.5,
		0.5],
		"scale":[12.119674682617188,
		12.119674682617188,
		12.119674682617188]
	},
	{
		"name":"Plane.029",
		"mesh":2,
		"translation":[1103.6004638671876,
		-55.90961837768555,
		-3.4234767798402289e-15],
		"rotation":[0.7071067690849304,
		0.0,
		0.0,
		-0.7071067690849304],
		"scale":[12.119674682617188,
		12.119674682617188,
		12.119674682617188]
	},
	{
		"name":"Cube.4",
		"mesh":3
	},
	{
		"name":"Rectangle",
		"translation":[0.0,
		0.0,
		0.0],
		"rotation":[0.0,
		-0.9702963829040527,
		0.0,
		-0.24191924929618836],
		"scale":[1.0,
		1.0,
		1.0],
		"children":[9]
	},
	{
		"name":"Text Spline",
		"children":[10]
	},
	{
		"name":"Text Spline",
		"children":[11]
	},
	{
		"name":"OctaneCamera",
		"rotation":[-0.22161836922168733,
		-0.7764627933502197,
		-0.3850173056125641,
		0.44693684577941897],
		"camera":0,
		"translation":[-748.9271850585938,
		539.0148315429688,
		3.6608195304870607],
		"scale":[1.0,
		1.0,
		1.0]
	},
	{
		"name":"1",
		"children":[12,
		13,
		14]
	},
	{
		"name":"1",
		"children":[15,
		16]
	},
	{
		"name":"1,",
		"children":[17,
		18]
	},
	{
		"name":"5",
		"translation":[21.97800064086914,
		3.4091479469880016e-15,
		0.0],
		"rotation":[0.0,
		0.0,
		0.0,
		-1.0],
		"scale":[1.0,
		1.0,
		1.0],
		"children":[19]
	},
	{
		"name":"m",
		"translation":[50.42399978637695,
		1.2256390563916697e-14,
		-7.105427357601002e-15],
		"rotation":[0.0,
		0.0,
		0.0,
		-1.0],
		"scale":[1.0,
		1.0,
		1.0],
		"children":[20]
	},
	{
		"name":"10",
		"children":[21,
		22]
	},
	{
		"name":"m",
		"translation":[183.52000427246095,
		0.0,
		-2.520626690702475e-15],
		"rotation":[0.0,
		0.0,
		0.0,
		-1.0],
		"scale":[1.0,
		1.0,
		1.0],
		"children":[23]
	},
	{
		"name":"1",
		"mesh":4
	},
	{
		"name":",",
		"mesh":5,
		"translation":[12.407999992370606,
		2.8231544604514788e-15,
		0.0],
		"rotation":[0.0,
		0.0,
		0.0,
		-1.0],
		"scale":[1.0,
		1.0,
		1.0]
	},
	{
		"name":"5",
		"mesh":6
	},
	{
		"name":"m",
		"mesh":7
	},
	{
		"name":"1",
		"mesh":8
	},
	{
		"name":"0",
		"mesh":9,
		"translation":[55.64799880981445,
		0.0,
		-2.520626690702475e-15],
		"rotation":[0.0,
		0.0,
		0.0,
		-1.0],
		"scale":[1.0,
		1.0,
		1.0]
	},
	{
		"name":"m",
		"mesh":10
	}],
	"meshes":[{
		"name":"Plane.4",
		"primitives":[{
			"attributes":{
				"POSITION":1,
				"NORMAL":2
			},
			"indices":0,
			"material":0
		}]
	},
	{
		"name":"Plane.2",
		"primitives":[{
			"attributes":{
				"POSITION":4,
				"NORMAL":5
			},
			"indices":3,
			"material":0
		}]
	},
	{
		"name":"Plane.029",
		"primitives":[{
			"attributes":{
				"POSITION":7,
				"NORMAL":8
			},
			"indices":6,
			"material":1
		}]
	},
	{
		"name":"Cube.4",
		"primitives":[{
			"attributes":{
				"POSITION":10,
				"NORMAL":11
			},
			"indices":9,
			"material":2
		}]
	},
	{
		"name":"1",
		"primitives":[{
			"attributes":{
				"POSITION":13,
				"NORMAL":14,
				"TEXCOORD_0":15
			},
			"indices":12,
			"material":3
		}]
	},
	{
		"name":",",
		"primitives":[{
			"attributes":{
				"POSITION":17,
				"NORMAL":18,
				"TEXCOORD_0":19
			},
			"indices":16,
			"material":3
		}]
	},
	{
		"name":"5",
		"primitives":[{
			"attributes":{
				"POSITION":21,
				"NORMAL":22,
				"TEXCOORD_0":23
			},
			"indices":20,
			"material":3
		}]
	},
	{
		"name":"m",
		"primitives":[{
			"attributes":{
				"POSITION":25,
				"NORMAL":26,
				"TEXCOORD_0":27
			},
			"indices":24,
			"material":3
		}]
	},
	{
		"name":"1",
		"primitives":[{
			"attributes":{
				"POSITION":29,
				"NORMAL":30,
				"TEXCOORD_0":31
			},
			"indices":28,
			"material":4
		}]
	},
	{
		"name":"0",
		"primitives":[{
			"attributes":{
				"POSITION":33,
				"NORMAL":34,
				"TEXCOORD_0":35
			},
			"indices":32,
			"material":4
		}]
	},
	{
		"name":"m",
		"primitives":[{
			"attributes":{
				"POSITION":37,
				"NORMAL":38,
				"TEXCOORD_0":39
			},
			"indices":36,
			"material":4
		}]
	}],
	"cameras":[{
		"type":"orthographic",
		"orthographic":{
			"znear":0.0,
			"zfar":10000000000.0,
			"xmag":807.113525390625,
			"ymag":454.0013732910156
		}
	}],
	"accessors":[{
		"bufferView":0,
		"type":"SCALAR",
		"componentType":5123,
		"count":84,
		"byteOffset":0,
		"min":[0],
		"max":[51]
	},
	{
		"bufferView":1,
		"type":"VEC3",
		"componentType":5126,
		"count":52,
		"byteOffset":0,
		"min":[-6.319341659545898,
		-3.6804769039154054,
		-0.8161559104919434],
		"max":[5.851236343383789,
		3.6804769039154054,
		1.4020705559422307e-15]
	},
	{
		"bufferView":1,
		"type":"VEC3",
		"componentType":5126,
		"count":52,
		"byteOffset":12,
		"min":[-1.0,
		-1.0,
		-1.0],
		"max":[1.0,
		1.0,
		1.0]
	},
	{
		"bufferView":2,
		"type":"SCALAR",
		"componentType":5123,
		"count":84,
		"byteOffset":0,
		"min":[0],
		"max":[51]
	},
	{
		"bufferView":3,
		"type":"VEC3",
		"componentType":5126,
		"count":52,
		"byteOffset":0,
		"min":[-6.319341659545898,
		-3.6804769039154054,
		-0.8161559104919434],
		"max":[5.851236343383789,
		3.6804769039154054,
		1.4020705559422307e-15]
	},
	{
		"bufferView":3,
		"type":"VEC3",
		"componentType":5126,
		"count":52,
		"byteOffset":12,
		"min":[-1.0,
		-1.0,
		-1.0],
		"max":[1.0,
		1.0,
		1.0]
	},
	{
		"bufferView":4,
		"type":"SCALAR",
		"componentType":5123,
		"count":84,
		"byteOffset":0,
		"min":[0],
		"max":[51]
	},
	{
		"bufferView":5,
		"type":"VEC3",
		"componentType":5126,
		"count":52,
		"byteOffset":0,
		"min":[-71.8341064453125,
		-6.280677318572998,
		-1.392757534980774],
		"max":[9.985045433044434,
		6.280677318572998,
		8.881784197001253e-16]
	},
	{
		"bufferView":5,
		"type":"VEC3",
		"componentType":5126,
		"count":52,
		"byteOffset":12,
		"min":[-1.0,
		-1.0,
		-1.0],
		"max":[1.0,
		1.0,
		1.0]
	},
	{
		"bufferView":6,
		"type":"SCALAR",
		"componentType":5123,
		"count":465,
		"byteOffset":0,
		"min":[0],
		"max":[313]
	},
	{
		"bufferView":7,
		"type":"VEC3",
		"componentType":5126,
		"count":314,
		"byteOffset":0,
		"min":[-156.29981994628907,
		-77.18787384033203,
		-99.14655303955078],
		"max":[221.8954315185547,
		111.07294464111328,
		99.14655303955078]
	},
	{
		"bufferView":7,
		"type":"VEC3",
		"componentType":5126,
		"count":314,
		"byteOffset":12,
		"min":[-1.0,
		-1.0,
		-1.0],
		"max":[1.0,
		1.0,
		1.0]
	},
	{
		"bufferView":8,
		"type":"SCALAR",
		"componentType":5123,
		"count":60,
		"byteOffset":0,
		"min":[0],
		"max":[35]
	},
	{
		"bufferView":9,
		"type":"VEC3",
		"componentType":5126,
		"count":36,
		"byteOffset":0,
		"min":[0.890999972820282,
		0.0,
		-15.0],
		"max":[10.031999588012696,
		24.09000015258789,
		0.0]
	},
	{
		"bufferView":9,
		"type":"VEC3",
		"componentType":5126,
		"count":36,
		"byteOffset":12,
		"min":[-1.0,
		-1.0,
		-1.0],
		"max":[1.0,
		1.0,
		1.0]
	},
	{
		"bufferView":9,
		"type":"VEC2",
		"componentType":5126,
		"count":36,
		"byteOffset":24,
		"min":[0.0,
		0.0],
		"max":[1.0,
		1.0]
	},
	{
		"bufferView":10,
		"type":"SCALAR",
		"componentType":5123,
		"count":36,
		"byteOffset":0,
		"min":[0],
		"max":[23]
	},
	{
		"bufferView":11,
		"type":"VEC3",
		"componentType":5126,
		"count":24,
		"byteOffset":0,
		"min":[0.6269999742507935,
		-4.982999801635742,
		-15.0],
		"max":[8.513999938964844,
		5.709000110626221,
		0.0]
	},
	{
		"bufferView":11,
		"type":"VEC3",
		"componentType":5126,
		"count":24,
		"byteOffset":12,
		"min":[-0.981044352054596,
		-1.0,
		-1.0],
		"max":[0.9310277104377747,
		1.0,
		1.0]
	},
	{
		"bufferView":11,
		"type":"VEC2",
		"componentType":5126,
		"count":24,
		"byteOffset":24,
		"min":[0.0,
		0.0],
		"max":[1.0,
		1.0]
	},
	{
		"bufferView":12,
		"type":"SCALAR",
		"componentType":5123,
		"count":1584,
		"byteOffset":0,
		"min":[0],
		"max":[549]
	},
	{
		"bufferView":13,
		"type":"VEC3",
		"componentType":5126,
		"count":550,
		"byteOffset":0,
		"min":[2.7720000743865969,
		0.0,
		-15.0],
		"max":[19.83300018310547,
		24.12299919128418,
		0.0]
	},
	{
		"bufferView":13,
		"type":"VEC3",
		"componentType":5126,
		"count":550,
		"byteOffset":12,
		"min":[-1.0,
		-1.0,
		-1.0],
		"max":[1.0,
		1.0,
		1.0]
	},
	{
		"bufferView":13,
		"type":"VEC2",
		"componentType":5126,
		"count":550,
		"byteOffset":24,
		"min":[0.0,
		0.0],
		"max":[1.0,
		1.0]
	},
	{
		"bufferView":14,
		"type":"SCALAR",
		"componentType":5123,
		"count":1620,
		"byteOffset":0,
		"min":[0],
		"max":[573]
	},
	{
		"bufferView":15,
		"type":"VEC3",
		"componentType":5126,
		"count":574,
		"byteOffset":0,
		"min":[2.0460000038146974,
		0.0,
		-15.0],
		"max":[33.03300094604492,
		18.61199951171875,
		0.0]
	},
	{
		"bufferView":15,
		"type":"VEC3",
		"componentType":5126,
		"count":574,
		"byteOffset":12,
		"min":[-1.0,
		-1.0,
		-1.0],
		"max":[1.0,
		1.0,
		1.0]
	},
	{
		"bufferView":15,
		"type":"VEC2",
		"componentType":5126,
		"count":574,
		"byteOffset":24,
		"min":[0.0,
		0.0],
		"max":[1.0,
		1.0]
	},
	{
		"bufferView":16,
		"type":"SCALAR",
		"componentType":5123,
		"count":60,
		"byteOffset":0,
		"min":[0],
		"max":[35]
	},
	{
		"bufferView":17,
		"type":"VEC3",
		"componentType":5126,
		"count":36,
		"byteOffset":0,
		"min":[3.996000051498413,
		0.0,
		-15.0],
		"max":[44.992000579833987,
		108.04000091552735,
		0.0]
	},
	{
		"bufferView":17,
		"type":"VEC3",
		"componentType":5126,
		"count":36,
		"byteOffset":12,
		"min":[-1.0,
		-1.0,
		-1.0],
		"max":[1.0,
		1.0,
		1.0]
	},
	{
		"bufferView":17,
		"type":"VEC2",
		"componentType":5126,
		"count":36,
		"byteOffset":24,
		"min":[0.0,
		0.0],
		"max":[1.0,
		1.0]
	},
	{
		"bufferView":18,
		"type":"SCALAR",
		"componentType":5123,
		"count":1680,
		"byteOffset":0,
		"min":[0],
		"max":[563]
	},
	{
		"bufferView":19,
		"type":"VEC3",
		"componentType":5126,
		"count":564,
		"byteOffset":0,
		"min":[6.659999847412109,
		0.4440000057220459,
		-15.0],
		"max":[89.83599853515625,
		110.26000213623047,
		0.0]
	},
	{
		"bufferView":19,
		"type":"VEC3",
		"componentType":5126,
		"count":564,
		"byteOffset":12,
		"min":[-0.9999974966049194,
		-0.9999912977218628,
		-1.0],
		"max":[1.0,
		0.9999910593032837,
		1.0]
	},
	{
		"bufferView":19,
		"type":"VEC2",
		"componentType":5126,
		"count":564,
		"byteOffset":24,
		"min":[0.0,
		0.0],
		"max":[1.0,
		1.0]
	},
	{
		"bufferView":20,
		"type":"SCALAR",
		"componentType":5123,
		"count":1620,
		"byteOffset":0,
		"min":[0],
		"max":[573]
	},
	{
		"bufferView":21,
		"type":"VEC3",
		"componentType":5126,
		"count":574,
		"byteOffset":0,
		"min":[9.175999641418457,
		0.0,
		-15.0],
		"max":[148.1479949951172,
		83.47200012207031,
		0.0]
	},
	{
		"bufferView":21,
		"type":"VEC3",
		"componentType":5126,
		"count":574,
		"byteOffset":12,
		"min":[-1.0,
		-1.0,
		-1.0],
		"max":[1.0,
		1.0,
		1.0]
	},
	{
		"bufferView":21,
		"type":"VEC2",
		"componentType":5126,
		"count":574,
		"byteOffset":24,
		"min":[0.0,
		0.0],
		"max":[1.0,
		1.0]
	}],
	"bufferViews":[{
		"buffer":0,
		"byteOffset":0,
		"byteLength":168,
		"target":34963
	},
	{
		"buffer":0,
		"byteOffset":168,
		"byteLength":1248,
		"target":34962,
		"byteStride":24
	},
	{
		"buffer":1,
		"byteOffset":0,
		"byteLength":168,
		"target":34963
	},
	{
		"buffer":1,
		"byteOffset":168,
		"byteLength":1248,
		"target":34962,
		"byteStride":24
	},
	{
		"buffer":2,
		"byteOffset":0,
		"byteLength":168,
		"target":34963
	},
	{
		"buffer":2,
		"byteOffset":168,
		"byteLength":1248,
		"target":34962,
		"byteStride":24
	},
	{
		"buffer":3,
		"byteOffset":0,
		"byteLength":930,
		"target":34963
	},
	{
		"buffer":3,
		"byteOffset":932,
		"byteLength":7536,
		"target":34962,
		"byteStride":24
	},
	{
		"buffer":4,
		"byteOffset":0,
		"byteLength":120,
		"target":34963
	},
	{
		"buffer":4,
		"byteOffset":120,
		"byteLength":1152,
		"target":34962,
		"byteStride":32
	},
	{
		"buffer":5,
		"byteOffset":0,
		"byteLength":72,
		"target":34963
	},
	{
		"buffer":5,
		"byteOffset":72,
		"byteLength":768,
		"target":34962,
		"byteStride":32
	},
	{
		"buffer":6,
		"byteOffset":0,
		"byteLength":3168,
		"target":34963
	},
	{
		"buffer":6,
		"byteOffset":3168,
		"byteLength":17600,
		"target":34962,
		"byteStride":32
	},
	{
		"buffer":7,
		"byteOffset":0,
		"byteLength":3240,
		"target":34963
	},
	{
		"buffer":7,
		"byteOffset":3240,
		"byteLength":18368,
		"target":34962,
		"byteStride":32
	},
	{
		"buffer":8,
		"byteOffset":0,
		"byteLength":120,
		"target":34963
	},
	{
		"buffer":8,
		"byteOffset":120,
		"byteLength":1152,
		"target":34962,
		"byteStride":32
	},
	{
		"buffer":9,
		"byteOffset":0,
		"byteLength":3360,
		"target":34963
	},
	{
		"buffer":9,
		"byteOffset":3360,
		"byteLength":18048,
		"target":34962,
		"byteStride":32
	},
	{
		"buffer":10,
		"byteOffset":0,
		"byteLength":3240,
		"target":34963
	},
	{
		"buffer":10,
		"byteOffset":3240,
		"byteLength":18368,
		"target":34962,
		"byteStride":32
	}],
	"buffers":[{
		"uri":"data:application/octet-stream;base64,",
		"byteLength":1416
	},
	{
		"uri":"data:application/octet-stream;base64,",
		"byteLength":1416
	},
	{
		"uri":"data:application/octet-stream;base64,",
		"byteLength":1416
	},
	{
		"uri":"data:application/octet-stream;base64,",
		"byteLength":8468
	},
	{
		"uri":"data:application/octet-stream;base64,",
		"byteLength":1272
	},
	{
		"uri":"data:application/octet-stream;base64,",
		"byteLength":840
	},
	{
		"uri":"data:application/octet-stream;base64,",
		"byteLength":20768
	},
	{
		"uri":"data:application/octet-stream;base64,",
		"byteLength":21608
	},
	{
		"uri":"data:application/octet-stream;base64,",
		"byteLength":1272
	},
	{
		"uri":"data:application/octet-stream;base64,",
		"byteLength":21408
	},
	{
		"uri":"data:application/octet-stream;base64,",
		"byteLength":21608
	}],
	"materials":[{
		"pbrMetallicRoughness":{
			"baseColorFactor":[0.800000011920929,
			0.800000011920929,
			0.800000011920929,
			1.0],
			"metallicFactor":0.0,
			"roughnessFactor":0.5356143810225276
		},
		"emissiveFactor":[0.0,
		0.0,
		0.0],
		"alphaMode":"OPAQUE",
		"doubleSided":false,
		"name":"Material.003"
	},
	{
		"pbrMetallicRoughness":{
			"baseColorFactor":[0.800000011920929,
			0.800000011920929,
			0.800000011920929,
			1.0],
			"metallicFactor":0.0,
			"roughnessFactor":0.5356143810225276
		},
		"emissiveFactor":[0.0,
		0.0,
		0.0],
		"alphaMode":"OPAQUE",
		"doubleSided":false,
		"name":"Material.003"
	},
	{
		"pbrMetallicRoughness":{
			"baseColorFactor":[0.21600000000000003,
			0.585866666666667,
			0.8,
			1.0],
			"metallicFactor":0.0,
			"roughnessFactor":0.5
		},
		"emissiveFactor":[0.0,
		0.0,
		0.0],
		"alphaMode":"OPAQUE",
		"doubleSided":false,
		"name":"Mat.1"
	},
	{
		"pbrMetallicRoughness":{
			"baseColorFactor":[0.800000011920929,
			0.800000011920929,
			0.800000011920929,
			1.0],
			"metallicFactor":0.0,
			"roughnessFactor":0.5356143810225276
		},
		"emissiveFactor":[0.0,
		0.0,
		0.0],
		"alphaMode":"OPAQUE",
		"doubleSided":false,
		"name":"Material.003"
	},
	{
		"pbrMetallicRoughness":{
			"baseColorFactor":[0.800000011920929,
			0.800000011920929,
			0.800000011920929,
			1.0],
			"metallicFactor":0.0,
			"roughnessFactor":0.5356143810225276
		},
		"emissiveFactor":[0.0,
		0.0,
		0.0],
		"alphaMode":"OPAQUE",
		"doubleSided":false,
		"name":"Material.003"
	}]
}